<?xml version="1.0" standalone="no"?>
<!DOCTYPE svg PUBLIC "-//W3C//DTD SVG 20010904//EN"
 "http://www.w3.org/TR/2001/REC-SVG-20010904/DTD/svg10.dtd">
<svg version="1.0" xmlns="http://www.w3.org/2000/svg"
 width="894.000000pt" height="894.000000pt" viewBox="0 0 894.000000 894.000000"
 preserveAspectRatio="xMidYMid meet">
<metadata>
Created by potrace 1.14, written by Peter Selinger 2001-2017
</metadata>
<g transform="translate(0.000000,894.000000) scale(0.100000,-0.100000)"
fill="#000000" stroke="none">
<path d="M4250 8462 c0 -6 -19 -10 -42 -10 -44 0 -125 -7 -213 -18 -27 -3 -65
-7 -82 -7 -18 -1 -33 -4 -33 -8 0 -3 -6 -6 -12 -6 -30 -1 -130 -13 -136 -17
-6 -4 -54 -13 -107 -21 -11 -2 -20 -4 -20 -5 0 -3 -94 -22 -112 -23 -7 0 -13
-5 -13 -10 0 -6 -3 -8 -6 -4 -3 3 -29 -1 -57 -10 -28 -8 -59 -16 -69 -18 -10
-2 -23 -7 -28 -10 -9 -6 -23 -9 -80 -21 -13 -3 -29 -9 -36 -15 -6 -5 -23 -10
-37 -11 -14 -1 -24 -5 -22 -8 2 -3 -17 -12 -43 -20 -26 -7 -69 -23 -97 -35
-27 -12 -53 -23 -57 -24 -16 -4 -86 -33 -136 -57 -28 -13 -53 -23 -55 -22 -1
1 -20 -10 -42 -23 -22 -14 -56 -31 -75 -39 -19 -7 -41 -20 -47 -28 -7 -9 -13
-12 -13 -7 0 4 -9 0 -20 -10 -11 -10 -20 -15 -20 -11 0 4 -13 -2 -30 -14 -16
-12 -30 -18 -30 -13 0 4 -4 3 -8 -3 -4 -6 -32 -26 -62 -45 -30 -18 -66 -41
-79 -51 -13 -10 -27 -15 -32 -12 -5 3 -9 2 -9 -3 0 -10 -69 -58 -84 -58 -6 -1
-10 -6 -8 -13 1 -7 -3 -12 -8 -12 -13 0 -89 -53 -125 -87 -8 -7 -16 -13 -19
-13 -6 0 -34 -22 -96 -77 -21 -18 -40 -30 -44 -26 -3 3 -6 -1 -6 -10 0 -9 -4
-17 -8 -17 -5 0 -37 -27 -73 -59 -35 -33 -67 -57 -72 -54 -4 2 -6 0 -5 -4 2
-5 -31 -43 -72 -84 -41 -41 -92 -94 -113 -117 -21 -25 -42 -40 -49 -36 -7 4
-8 3 -4 -5 4 -6 -4 -23 -18 -39 -45 -49 -163 -194 -196 -242 -8 -12 -23 -32
-33 -43 -11 -12 -25 -34 -33 -49 -8 -16 -19 -28 -24 -28 -6 0 -10 -6 -10 -14
0 -8 -6 -21 -14 -28 -7 -8 -21 -28 -30 -46 -9 -18 -21 -32 -26 -32 -6 0 -9 -6
-7 -12 1 -7 -4 -12 -11 -10 -8 1 -11 -2 -7 -8 3 -5 -2 -23 -12 -38 -26 -40
-39 -61 -69 -119 -15 -29 -31 -53 -36 -53 -4 0 -8 -3 -7 -7 2 -16 -14 -53 -22
-53 -5 0 -8 -3 -7 -7 3 -13 -25 -63 -34 -63 -5 0 -7 -4 -4 -9 9 -14 -5 -42
-17 -34 -6 3 -7 1 -3 -5 4 -6 -9 -44 -27 -84 -59 -125 -71 -153 -73 -163 -4
-30 -18 -54 -27 -48 -6 3 -7 1 -3 -5 6 -10 -10 -75 -33 -127 -9 -21 -36 -106
-36 -115 0 -3 -3 -10 -7 -16 -4 -6 -10 -26 -13 -45 -3 -19 -12 -46 -20 -62 -9
-19 -10 -25 -2 -21 8 5 8 3 0 -7 -7 -7 -13 -26 -13 -42 0 -16 -4 -26 -10 -22
-5 3 -7 0 -4 -8 3 -8 0 -34 -6 -58 -15 -55 -19 -77 -22 -111 -1 -16 -5 -28 -8
-28 -3 0 -6 -12 -7 -27 -1 -39 -6 -57 -18 -65 -6 -5 -6 -8 2 -8 8 0 9 -10 3
-32 -5 -18 -10 -46 -11 -63 -2 -16 -7 -35 -12 -42 -4 -6 -3 -14 3 -18 6 -3 7
-12 3 -18 -8 -13 -10 -24 -12 -83 -1 -25 -5 -33 -13 -28 -10 6 -10 5 -2 -7 12
-14 12 -49 -1 -88 -4 -13 -2 -21 6 -21 8 0 8 -5 -2 -17 -9 -11 -10 -14 -2 -9
9 5 11 2 7 -9 -4 -10 -13 -14 -23 -11 -14 5 -14 5 -1 -6 18 -16 27 -53 10 -43
-9 5 -9 2 -3 -11 5 -11 8 -90 8 -176 -1 -103 3 -158 10 -158 5 0 4 -4 -4 -9
-9 -6 -10 -10 -2 -16 9 -5 9 -10 0 -21 -6 -8 -7 -14 -3 -14 5 0 10 -14 10 -30
2 -27 0 -29 -15 -18 -15 12 -15 11 0 -7 10 -11 20 -47 23 -81 6 -64 12 -109
22 -172 4 -20 7 -49 8 -64 0 -16 3 -28 6 -28 3 0 6 -9 6 -19 0 -16 -3 -18 -16
-8 -8 6 -6 1 5 -11 11 -14 19 -38 20 -63 0 -21 3 -39 6 -39 14 0 19 -33 7 -48
-10 -12 -10 -14 -1 -8 13 7 18 -9 15 -47 -1 -10 2 -16 7 -12 6 3 10 -3 10 -12
1 -24 7 -54 14 -73 4 -8 8 -26 9 -40 2 -14 6 -27 9 -30 4 -3 9 -18 10 -35 2
-16 7 -33 11 -36 5 -3 9 -17 10 -32 1 -15 6 -27 10 -27 4 0 8 -10 8 -23 0 -13
4 -27 10 -33 5 -5 11 -18 13 -29 2 -11 10 -36 19 -55 8 -19 21 -56 28 -83 8
-26 18 -47 23 -47 5 0 7 -9 4 -20 -3 -11 1 -23 8 -28 7 -4 15 -16 17 -27 1
-11 7 -23 11 -26 5 -4 10 -18 10 -32 1 -14 5 -23 8 -21 7 4 35 -57 31 -68 -1
-5 3 -8 8 -8 6 0 10 -9 10 -20 0 -11 5 -20 10 -20 6 0 10 -7 10 -16 0 -8 7
-22 15 -31 8 -8 13 -19 10 -24 -4 -5 -1 -9 4 -9 6 0 11 -9 11 -21 0 -13 4 -18
12 -13 8 5 9 2 5 -9 -4 -11 -1 -17 8 -17 8 0 15 -7 15 -15 0 -17 18 -52 38
-73 7 -7 10 -18 7 -23 -4 -5 -1 -9 5 -9 6 0 9 -4 6 -8 -3 -5 4 -14 14 -22 10
-8 17 -17 14 -22 -3 -4 0 -8 6 -8 6 0 9 -4 5 -9 -3 -5 -1 -12 5 -16 6 -4 8
-11 5 -16 -3 -5 1 -6 10 -3 9 4 15 3 13 -2 -4 -15 13 -55 22 -49 4 2 13 -9 20
-25 7 -17 16 -30 21 -30 5 0 9 -6 9 -13 0 -8 9 -22 20 -32 12 -10 18 -25 16
-32 -3 -7 0 -12 7 -10 7 1 11 -8 9 -23 -1 -17 1 -21 7 -12 6 10 18 -1 47 -40
21 -29 44 -59 51 -66 7 -8 11 -18 8 -23 -4 -5 -2 -9 4 -9 17 0 52 -43 46 -58
-3 -7 0 -10 6 -7 12 8 51 -34 43 -47 -3 -4 0 -7 8 -6 7 2 12 -3 10 -10 -1 -8
2 -11 6 -8 14 9 61 -54 57 -75 -2 -11 0 -17 6 -14 5 4 7 11 4 16 -3 5 1 6 10
3 9 -4 14 -9 11 -11 -3 -3 13 -22 36 -43 25 -24 37 -43 33 -51 -5 -8 -4 -10 3
-5 7 4 12 2 12 -3 0 -6 7 -11 15 -11 8 0 19 -9 25 -20 6 -11 17 -20 25 -20 14
0 20 -12 16 -33 -1 -5 3 -6 9 -2 5 3 13 -1 16 -9 3 -9 10 -16 15 -16 15 0 48
-33 43 -42 -3 -5 -2 -8 3 -7 20 4 33 -2 33 -15 0 -7 9 -16 21 -19 13 -4 18
-10 13 -18 -4 -7 -3 -10 4 -5 6 3 17 -3 26 -15 9 -14 19 -18 28 -13 10 6 9 3
-1 -10 -8 -9 -10 -16 -5 -15 23 4 45 -2 39 -11 -3 -5 1 -10 9 -10 9 0 16 -4
16 -10 0 -5 5 -10 11 -10 7 0 24 -12 38 -27 15 -16 31 -29 36 -31 6 -1 20 -12
33 -22 12 -11 29 -20 37 -20 14 0 20 -12 16 -33 -1 -5 4 -7 11 -4 7 2 21 0 32
-5 15 -8 16 -12 5 -20 -11 -8 -9 -8 5 -4 12 4 25 -1 36 -14 9 -11 20 -17 24
-13 3 3 6 1 6 -6 0 -7 5 -11 12 -9 6 2 20 -3 29 -11 37 -34 49 -41 64 -41 9 0
18 -7 21 -15 4 -8 10 -12 15 -9 5 3 9 1 9 -3 0 -5 16 -15 35 -22 19 -7 35 -17
35 -22 0 -5 9 -9 20 -9 11 0 23 -7 26 -15 4 -8 10 -12 15 -9 5 3 9 0 9 -6 0
-6 4 -9 9 -5 5 3 17 -2 25 -11 9 -8 16 -12 16 -7 0 4 7 -1 16 -12 8 -11 17
-19 20 -17 10 6 73 -22 67 -30 -3 -5 1 -9 8 -7 25 3 40 -1 35 -9 -2 -4 7 -9
22 -10 14 -1 28 -6 31 -10 3 -4 25 -14 49 -22 23 -7 42 -17 42 -22 0 -6 6 -8
13 -5 6 2 21 -3 31 -12 16 -13 18 -13 11 -1 -6 12 -5 13 5 3 11 -10 11 -15 -1
-30 -13 -17 -13 -17 7 -1 27 23 33 23 44 -4 8 -20 9 -21 9 -4 1 20 1 20 17 0
8 -10 12 -12 8 -4 -5 10 1 8 16 -5 13 -11 20 -14 16 -7 -4 6 -2 12 3 12 6 0
11 -5 11 -10 0 -6 5 -9 12 -8 7 2 12 -2 13 -9 0 -6 4 -15 9 -20 5 -5 6 -3 2 5
-6 10 0 12 21 9 21 -3 27 -9 25 -23 -2 -18 -2 -18 12 -1 9 12 16 14 21 7 3 -5
11 -8 16 -5 5 4 9 2 9 -4 0 -6 6 -8 14 -5 8 3 17 1 20 -5 4 -6 13 -8 20 -5 8
3 17 1 21 -5 3 -6 15 -11 26 -11 10 0 19 -6 19 -12 0 -9 4 -8 10 2 5 8 10 10
10 4 0 -7 7 -15 16 -18 8 -3 12 -2 9 4 -3 6 -1 10 4 10 6 0 11 -4 11 -9 0 -6
9 -8 20 -6 11 2 20 1 20 -3 0 -4 10 -13 23 -21 21 -13 21 -13 7 4 -14 17 -13
18 5 11 25 -10 95 -28 113 -29 6 0 12 -3 12 -6 0 -4 14 -7 31 -7 17 -1 35 -7
39 -14 6 -9 9 -9 13 1 4 12 7 11 16 -1 10 -13 11 -13 11 0 0 13 1 13 10 0 5
-8 10 -11 10 -6 0 6 7 1 15 -10 12 -14 14 -15 9 -2 -4 13 -1 15 15 11 11 -3
18 -9 15 -14 -3 -5 -1 -9 5 -9 5 0 12 6 14 13 4 9 8 9 15 -2 8 -10 11 -11 17
-1 6 10 11 9 22 -5 8 -12 13 -14 13 -6 0 11 3 11 15 1 12 -10 15 -10 15 0 0 8
4 9 13 3 6 -5 22 -8 35 -7 12 0 22 -3 22 -9 0 -5 7 -4 15 3 9 7 15 8 15 2 0
-5 10 -8 22 -4 16 4 19 2 13 -8 -6 -10 -4 -11 6 -4 22 14 53 11 66 -6 10 -13
12 -13 18 2 4 9 13 14 21 11 8 -3 11 -10 7 -17 -3 -6 -1 -6 8 2 17 16 49 16
49 0 0 -9 4 -8 10 2 9 13 11 13 19 0 5 -8 7 -18 4 -24 -3 -5 -1 -6 5 -2 6 4 8
14 5 24 -6 14 -4 15 9 4 10 -8 19 -9 22 -3 7 10 25 9 44 -2 6 -5 12 -4 12 1 0
5 7 9 15 9 8 0 15 -4 15 -9 0 -5 5 -6 12 -2 17 11 98 10 98 -1 0 -5 4 -4 9 4
7 11 9 11 14 0 4 -11 6 -11 6 0 1 11 5 10 16 -5 8 -10 15 -14 14 -9 -3 22 2
29 11 15 8 -12 10 -12 10 -1 0 11 3 11 17 0 9 -8 14 -9 10 -3 -5 8 6 12 33 12
28 1 39 -3 34 -11 -3 -7 1 -4 9 5 12 16 16 16 36 2 12 -9 20 -12 19 -7 -2 4 0
8 3 8 3 0 13 6 22 14 12 9 17 10 17 2 0 -7 4 -9 10 -6 6 3 10 1 10 -5 0 -7 7
-5 16 4 18 19 28 21 18 4 -5 -7 -3 -8 6 -3 7 4 26 10 41 11 16 2 42 6 59 8 19
2 28 -1 24 -8 -3 -6 1 -3 9 7 11 14 16 15 20 5 4 -10 6 -10 6 0 1 6 6 12 12
12 5 0 8 -4 5 -8 -3 -5 1 -9 9 -9 8 0 12 4 9 9 -3 4 3 8 13 9 17 1 41 4 88 11
11 2 23 7 26 12 4 4 16 3 29 -4 12 -6 24 -9 28 -6 3 3 -1 6 -8 6 -7 0 -10 3
-6 7 7 7 35 12 89 15 15 1 27 6 27 11 0 5 9 7 20 4 11 -3 20 -1 20 5 0 5 4 7
9 3 5 -3 12 -1 15 4 4 5 17 8 31 6 14 -1 25 2 25 7 0 6 7 8 15 5 8 -4 17 -2
20 4 4 5 10 7 15 4 5 -3 11 -1 15 4 3 6 13 7 22 4 9 -4 14 -2 10 3 -3 6 2 11
11 12 32 3 47 8 61 16 10 7 12 5 7 -5 -5 -8 -2 -8 6 2 7 9 19 14 27 11 9 -3
11 0 6 8 -6 9 -3 9 15 0 18 -9 21 -9 15 0 -6 10 -1 11 21 6 19 -4 24 -3 15 2
-16 12 -4 20 26 17 12 -1 20 2 17 6 -4 7 53 25 69 21 4 -1 7 3 7 9 0 5 4 8 9
5 5 -4 11 -1 13 5 2 6 15 12 30 12 14 1 24 5 21 10 -2 4 2 7 9 7 7 0 26 7 41
15 19 9 25 10 21 2 -4 -7 1 -5 12 3 34 26 65 41 74 35 6 -4 10 -3 10 2 0 4 14
16 31 25 17 10 27 12 23 5 -5 -8 -3 -8 9 1 9 8 21 11 26 7 7 -4 8 1 4 11 -4
11 -3 15 5 10 6 -3 13 -2 17 4 3 5 14 10 25 10 10 0 21 7 24 16 3 8 10 13 15
9 5 -3 13 0 16 6 4 5 14 8 22 5 8 -3 11 -2 8 4 -3 5 4 14 15 20 11 6 20 7 20
3 0 -4 5 -1 10 7 5 8 13 15 17 15 14 1 58 28 71 44 11 13 12 13 7 1 -4 -8 1
-6 9 4 9 11 16 17 16 13 0 -4 10 -1 23 7 12 8 26 15 30 15 5 -1 12 3 15 7 4 4
1 4 -5 0 -7 -4 -13 -5 -13 -2 0 3 18 15 40 26 22 11 40 25 40 31 0 6 5 9 12 7
7 -3 27 9 44 25 18 16 35 27 38 25 3 -1 12 6 21 17 9 11 14 13 10 5 -4 -10 -2
-9 8 2 8 10 17 15 20 11 4 -3 7 2 7 11 0 12 5 16 15 12 9 -3 23 6 37 24 12 17
25 30 30 30 4 0 21 13 38 30 17 16 35 30 41 30 6 0 7 5 4 10 -3 5 1 10 9 10 9
0 16 5 16 12 0 6 3 9 6 6 3 -3 20 9 38 28 18 19 40 34 49 34 11 0 14 5 10 18
-3 9 -2 14 2 10 5 -5 15 1 23 13 9 13 20 18 30 14 9 -3 13 -3 10 1 -11 11 11
44 29 44 9 0 13 3 10 7 -7 7 62 73 76 73 5 0 5 5 2 10 -3 6 -2 10 4 10 5 0 12
-6 15 -12 3 -7 3 -3 0 10 -4 16 -1 22 11 22 9 0 14 4 11 9 -3 5 1 12 10 15 8
3 12 10 9 16 -3 5 -1 10 5 10 6 0 18 7 26 15 9 8 13 15 11 15 -2 0 20 26 49
57 30 31 54 61 54 65 0 5 5 6 10 3 6 -3 10 -1 10 5 0 19 43 70 53 63 6 -3 7
-1 4 4 -8 12 31 59 45 55 5 -1 7 2 3 8 -6 10 24 59 38 60 5 0 5 -5 1 -12 -4
-6 -3 -8 4 -5 5 4 8 17 4 29 -3 13 -1 19 5 15 6 -4 14 5 17 19 4 15 9 24 13
21 3 -3 16 15 30 40 29 56 58 94 66 87 3 -3 4 2 3 12 0 9 5 19 13 22 9 3 11 0
6 -8 -5 -9 -4 -11 4 -6 8 6 9 12 2 20 -15 18 -1 28 18 13 14 -10 14 -10 3 5
-14 17 -8 43 8 33 4 -3 6 4 3 15 -3 12 1 22 11 26 9 3 13 10 10 15 -3 5 0 9 6
9 6 0 8 5 5 10 -3 6 -2 10 4 10 5 0 15 16 21 35 6 19 15 35 20 35 4 0 11 11
14 25 4 14 14 25 24 26 9 0 12 3 5 5 -14 6 3 54 19 54 5 0 7 4 3 9 -3 5 1 15
8 23 14 13 17 21 17 39 0 5 5 7 12 3 7 -4 8 -3 4 5 -4 6 -2 18 4 26 7 8 9 15
4 15 -4 0 1 7 12 16 10 8 13 13 6 9 -7 -4 -4 9 8 30 11 19 20 42 20 50 0 8 5
15 11 15 5 0 7 5 4 10 -3 6 -1 10 5 10 6 0 8 5 5 10 -3 5 -1 10 5 10 6 0 9 4
6 9 -8 12 4 42 14 36 4 -2 7 3 6 13 -1 30 25 93 36 86 7 -4 8 -2 4 5 -4 6 -1
25 8 41 8 17 10 28 5 25 -5 -3 -6 1 -3 9 3 9 11 13 16 10 6 -4 8 2 3 15 -3 12
-2 21 3 21 6 0 9 11 7 25 -1 14 2 25 8 25 5 0 7 9 4 20 -3 11 -1 20 4 20 5 0
9 8 9 18 0 10 3 22 8 26 7 8 9 14 11 47 0 11 4 18 9 16 4 -3 8 13 9 36 2 22 6
43 11 46 4 3 9 24 11 46 1 22 6 44 11 49 5 5 6 15 3 22 -3 8 1 14 8 14 11 0
11 3 -1 10 -9 6 -11 10 -3 10 7 0 10 7 6 17 -4 9 -2 14 3 11 5 -4 9 8 10 25 2
57 8 97 15 97 3 0 6 10 6 23 1 59 3 68 16 61 9 -6 9 -4 1 7 -5 8 -9 23 -7 34
3 20 14 138 16 163 0 6 3 12 6 12 3 0 8 80 9 178 3 120 8 179 15 184 9 6 9 8
0 8 -7 0 -12 24 -13 68 -1 37 -2 85 -4 107 -1 22 3 46 9 54 8 11 7 13 -3 7
-11 -6 -12 -1 -9 23 3 17 1 34 -4 37 -6 4 -6 10 0 18 6 7 8 16 4 19 -3 4 -8
22 -10 39 -16 148 -29 243 -33 243 -1 0 -3 15 -6 34 -2 19 -6 44 -8 55 -21
103 -25 129 -20 137 3 5 0 9 -6 9 -6 0 -10 10 -9 23 2 12 0 28 -4 34 -14 23
-38 128 -33 145 2 10 0 15 -5 12 -5 -3 -11 1 -13 8 -33 113 -41 145 -41 153 0
6 -3 12 -7 15 -4 3 -9 18 -12 34 -3 15 -10 34 -17 42 -6 8 -12 22 -13 32 -1 9
-10 35 -20 57 -10 22 -19 47 -21 56 -2 9 -13 35 -25 58 -11 23 -18 46 -15 51
3 6 2 10 -3 10 -10 0 -36 53 -32 66 1 4 -2 10 -7 13 -16 11 -72 134 -66 144 4
6 1 7 -7 2 -10 -6 -12 -4 -7 9 4 10 3 15 -3 11 -6 -3 -10 0 -10 9 0 8 -3 16
-7 18 -5 2 -19 25 -33 53 -14 27 -37 68 -52 91 -16 23 -28 47 -28 53 0 6 -4
11 -10 11 -5 0 -10 6 -10 14 0 7 -11 25 -25 40 -14 15 -25 34 -25 42 0 7 -4
14 -8 14 -5 0 -18 18 -31 40 -12 22 -27 40 -33 40 -6 0 -9 3 -5 6 3 4 -1 13
-9 21 -8 8 -11 19 -8 25 4 7 2 8 -4 4 -6 -4 -16 4 -23 16 -6 13 -23 35 -37 51
-14 15 -23 27 -19 27 3 0 -4 10 -16 23 -51 54 -122 141 -125 154 -2 7 -10 13
-18 13 -8 0 -14 4 -14 9 0 6 -22 33 -50 62 -27 29 -50 56 -50 61 0 4 -4 8 -8
8 -4 0 -49 41 -99 90 -51 50 -97 90 -103 90 -6 0 -8 5 -5 10 3 6 2 10 -3 10
-5 0 -23 14 -41 30 -17 17 -31 28 -31 26 0 -2 -19 13 -42 34 -71 65 -78 70
-88 70 -5 0 -10 4 -10 8 0 4 -15 16 -32 27 -18 10 -39 25 -47 33 -8 7 -55 41
-105 75 -100 68 -96 65 -187 120 -35 21 -82 49 -104 62 -22 13 -74 41 -115 61
-41 21 -76 41 -78 46 -2 4 -12 8 -22 8 -10 0 -22 5 -25 10 -3 6 -15 10 -26 10
-10 0 -19 4 -19 8 0 5 -18 14 -40 21 -22 6 -40 16 -40 21 0 6 -3 9 -7 9 -5 -1
-10 0 -13 1 -3 1 -12 3 -20 5 -8 2 -55 19 -105 39 -49 20 -97 36 -105 36 -9 0
-21 5 -27 11 -6 6 -17 12 -24 13 -8 2 -23 6 -34 10 -11 5 -27 10 -35 14 -8 3
-18 4 -22 4 -4 -1 -25 5 -45 13 -21 8 -50 16 -65 19 -15 3 -31 7 -36 10 -5 3
-22 8 -38 11 -16 3 -34 7 -41 9 -7 1 -15 5 -19 8 -3 4 -12 4 -20 1 -8 -3 -14
0 -14 6 0 6 -7 8 -15 5 -8 -3 -20 -2 -27 2 -7 4 -19 9 -28 10 -8 1 -28 4 -44
7 -16 4 -50 10 -75 14 -25 4 -49 8 -53 9 -5 1 -17 2 -29 3 -13 1 -18 5 -13 14
6 9 4 9 -7 2 -15 -11 -31 -12 -69 -2 -26 7 -89 14 -204 23 -39 3 -89 7 -111
10 -22 2 -47 4 -55 4 -102 -1 -205 2 -211 6 -4 2 -10 0 -14 -5 -3 -7 -15 -7
-30 -1 -13 5 -26 6 -29 2 -6 -10 -57 -9 -73 1 -7 5 -13 4 -13 -1z m2590 -7076
c0 -2 -8 -10 -17 -17 -16 -13 -17 -12 -4 4 13 16 21 21 21 13z"/>
<path d="M8387 5019 c7 -7 15 -10 18 -7 3 3 -2 9 -12 12 -14 6 -15 5 -6 -5z"/>
<path d="M8430 4580 c0 -5 5 -10 11 -10 5 0 7 5 4 10 -3 6 -8 10 -11 10 -2 0
-4 -4 -4 -10z"/>
<path d="M476 4038 c3 -5 10 -6 15 -3 13 9 11 12 -6 12 -8 0 -12 -4 -9 -9z"/>
<path d="M7733 2315 c0 -8 4 -12 9 -9 5 3 6 10 3 15 -9 13 -12 11 -12 -6z"/>
<path d="M1210 2239 c0 -5 5 -7 10 -4 6 3 10 8 10 11 0 2 -4 4 -10 4 -5 0 -10
-5 -10 -11z"/>
<path d="M7676 2218 c3 -5 10 -6 15 -3 13 9 11 12 -6 12 -8 0 -12 -4 -9 -9z"/>
<path d="M7594 2088 l-19 -23 23 19 c21 18 27 26 19 26 -2 0 -12 -10 -23 -22z"/>
<path d="M7516 1978 c3 -5 10 -6 15 -3 13 9 11 12 -6 12 -8 0 -12 -4 -9 -9z"/>
<path d="M7395 1881 c-3 -5 -2 -12 3 -15 5 -3 9 1 9 9 0 17 -3 19 -12 6z"/>
<path d="M1510 1821 c0 -6 4 -13 10 -16 6 -3 7 1 4 9 -7 18 -14 21 -14 7z"/>
<path d="M7330 1801 c0 -6 4 -13 10 -16 6 -3 7 1 4 9 -7 18 -14 21 -14 7z"/>
<path d="M7210 1699 c0 -5 5 -7 10 -4 6 3 10 8 10 11 0 2 -4 4 -10 4 -5 0 -10
-5 -10 -11z"/>
<path d="M7175 1640 c3 -5 8 -10 11 -10 2 0 4 5 4 10 0 6 -5 10 -11 10 -5 0
-7 -4 -4 -10z"/>
<path d="M1826 1498 c3 -5 10 -6 15 -3 13 9 11 12 -6 12 -8 0 -12 -4 -9 -9z"/>
<path d="M6930 1439 c0 -5 5 -7 10 -4 6 3 10 8 10 11 0 2 -4 4 -10 4 -5 0 -10
-5 -10 -11z"/>
<path d="M1999 1373 c-13 -16 -12 -17 4 -4 9 7 17 15 17 17 0 8 -8 3 -21 -13z"/>
<path d="M2053 1365 c0 -8 4 -12 9 -9 5 3 6 10 3 15 -9 13 -12 11 -12 -6z"/>
<path d="M6700 1260 c-9 -6 -10 -10 -3 -10 6 0 15 5 18 10 8 12 4 12 -15 0z"/>
<path d="M6515 1141 c-3 -5 -2 -12 3 -15 5 -3 9 1 9 9 0 17 -3 19 -12 6z"/>
<path d="M2386 1122 c-3 -5 1 -9 9 -9 8 0 12 4 9 9 -3 4 -7 8 -9 8 -2 0 -6 -4
-9 -8z"/>
<path d="M6355 1039 c-3 -4 2 -6 10 -5 21 3 28 13 10 13 -9 0 -18 -4 -20 -8z"/>
<path d="M6400 1020 c-9 -6 -10 -10 -3 -10 6 0 15 5 18 10 8 12 4 12 -15 0z"/>
<path d="M5930 839 c0 -5 5 -7 10 -4 6 3 10 8 10 11 0 2 -4 4 -10 4 -5 0 -10
-5 -10 -11z"/>
<path d="M5854 802 c4 -3 14 -7 22 -8 9 -1 13 0 10 4 -4 3 -14 7 -22 8 -9 1
-13 0 -10 -4z"/>
<path d="M5751 747 c-13 -21 -12 -21 5 -5 10 10 16 20 13 22 -3 3 -11 -5 -18
-17z"/>
<path d="M3316 718 c3 -5 10 -6 15 -3 13 9 11 12 -6 12 -8 0 -12 -4 -9 -9z"/>
<path d="M3233 693 c0 -9 4 -10 14 -2 7 6 13 12 13 14 0 1 -6 2 -13 2 -8 0
-14 -6 -14 -14z"/>
<path d="M5490 686 c0 -2 7 -7 16 -10 8 -3 12 -2 9 4 -6 10 -25 14 -25 6z"/>
<path d="M5745 680 c-3 -6 1 -7 9 -4 18 7 21 14 7 14 -6 0 -13 -4 -16 -10z"/>
<path d="M5370 660 c0 -5 5 -10 11 -10 5 0 7 5 4 10 -3 6 -8 10 -11 10 -2 0
-4 -4 -4 -10z"/>
<path d="M5333 645 c0 -8 4 -12 9 -9 5 3 6 10 3 15 -9 13 -12 11 -12 -6z"/>
<path d="M3650 626 c0 -2 7 -7 16 -10 8 -3 12 -2 9 4 -6 10 -25 14 -25 6z"/>
<path d="M3930 580 c0 -5 5 -10 11 -10 5 0 7 5 4 10 -3 6 -8 10 -11 10 -2 0
-4 -4 -4 -10z"/>
<path d="M4233 565 c0 -8 4 -12 9 -9 5 3 6 10 3 15 -9 13 -12 11 -12 -6z"/>
<path d="M4010 560 c0 -5 5 -10 11 -10 5 0 7 5 4 10 -3 6 -8 10 -11 10 -2 0
-4 -4 -4 -10z"/>
<path d="M4810 559 c0 -5 5 -7 10 -4 6 3 10 8 10 11 0 2 -4 4 -10 4 -5 0 -10
-5 -10 -11z"/>
<path d="M4870 566 c0 -2 7 -7 16 -10 8 -3 12 -2 9 4 -6 10 -25 14 -25 6z"/>
<path d="M4315 541 c-3 -5 -2 -12 3 -15 5 -3 9 1 9 9 0 17 -3 19 -12 6z"/>
<path d="M4719 533 c-13 -16 -12 -17 4 -4 16 13 21 21 13 21 -2 0 -10 -8 -17
-17z"/>
</g>
</svg>
